<svg xmlns="http://www.w3.org/2000/svg" viewBox="0 0 64 64" fill="none">
  <!-- Outer flame -->
  <path d="M32 6 C32 6 42 18 44 28 C46 36 41 46 32 50 C23 46 18 36 20 28 C22 18 32 6 32 6Z" fill="#f97316"/>
  <!-- Middle flame -->
  <path d="M32 16 C32 16 39 25 40 32 C41 38 37 44 32 46 C27 44 23 38 24 32 C25 25 32 16 32 16Z" fill="#fbbf24"/>
  <!-- Inner flame -->
  <path d="M32 26 C32 26 36 31 36 36 C36 40 34 43 32 44 C30 43 28 40 28 36 C28 31 32 26 32 26Z" fill="#fef08a"/>
  <!-- Base glow -->
  <ellipse cx="32" cy="50" rx="10" ry="4" fill="#f97316" opacity="0.4"/>
</svg>
