<svg xmlns="http://www.w3.org/2000/svg" viewBox="0 0 64 64" fill="none">
  <!-- Trophy cup -->
  <path d="M20 10 H44 L40 34 Q32 40 32 40 Q32 40 24 34 Z" fill="#fbbf24"/>
  <!-- Cup shine -->
  <path d="M24 14 L26 30 Q28 34 30 35" stroke="#fef08a" stroke-width="2" stroke-linecap="round" fill="none" opacity="0.6"/>
  <!-- Handles -->
  <path d="M20 16 Q10 16 10 24 Q10 30 20 30" stroke="#f59e0b" stroke-width="3" stroke-linecap="round" fill="none"/>
  <path d="M44 16 Q54 16 54 24 Q54 30 44 30" stroke="#f59e0b" stroke-width="3" stroke-linecap="round" fill="none"/>
  <!-- Stem -->
  <rect x="29" y="40" width="6" height="10" rx="2" fill="#f59e0b"/>
  <!-- Base -->
  <rect x="22" y="50" width="20" height="5" rx="2.5" fill="#d97706"/>
  <!-- Star on cup -->
  <polygon points="32,18 33.5,22 38,22 34.5,24.5 36,28.5 32,26 28,28.5 29.5,24.5 26,22 30.5,22" fill="#fef08a"/>
</svg>
